<svg width="71" height="62" viewBox="0 0 71 62" fill="none" xmlns="http://www.w3.org/2000/svg">
<path d="M1.2254 31.92L13.6354 60.84C13.8854 61.43 14.3254 61.78 14.7954 61.78H57.0754C57.5454 61.78 57.9854 61.42 58.2354 60.84C62.3754 51.2 66.5054 41.56 70.6454 31.92C71.2254 30.57 70.5654 28.82 69.4854 28.82H2.3854C1.3054 28.82 0.645404 30.58 1.2254 31.92Z" fill="#AFA7A7"/>
<path d="M35.9354 6.06C43.3454 6.06 49.4154 11.74 50.0454 18.99C50.1054 19.69 50.6754 20.23 51.3754 20.23H53.7454C54.5154 20.23 55.1354 19.58 55.0754 18.82C54.3554 8.88 46.0554 1.04 35.9354 1.04C25.8154 1.04 17.5154 8.88 16.7954 18.82C16.7354 19.58 17.3554 20.23 18.1254 20.23H20.4954C21.1954 20.23 21.7654 19.69 21.8254 18.99C22.4554 11.75 28.5354 6.06 35.9354 6.06Z" fill="#AFA7A7"/>
<path d="M0.205404 30.89L12.6154 59.81C12.8654 60.4 13.3054 60.75 13.7754 60.75H56.0554C56.5254 60.75 56.9654 60.39 57.2154 59.81C61.3554 50.17 65.4854 40.53 69.6254 30.89C70.2054 29.54 69.5454 27.79 68.4654 27.79H1.3754C0.295404 27.79 -0.364596 29.55 0.215404 30.89H0.205404Z" fill="white"/>
<path d="M34.9154 5.03C42.3254 5.03 48.3954 10.71 49.0254 17.96C49.0854 18.66 49.6554 19.2 50.3554 19.2H52.7254C53.4954 19.2 54.1154 18.55 54.0554 17.79C53.3354 7.84 45.0454 0 34.9154 0C24.7854 0 16.5054 7.84 15.7754 17.78C15.7154 18.54 16.3354 19.19 17.1054 19.19H19.4754C20.1754 19.19 20.7454 18.65 20.8054 17.95C21.4354 10.71 27.5154 5.02 34.9154 5.02V5.03Z" fill="white"/>
</svg>
