<svg width="25" height="26" viewBox="0 0 25 26" fill="none" xmlns="http://www.w3.org/2000/svg">
<g clip-path="url(#clip0_754_1111)">
<path d="M12.8036 13.9966C16.4585 13.9966 19.4214 10.9954 19.4214 7.29315C19.4214 3.59092 16.4585 0.589661 12.8036 0.589661C9.14862 0.589661 6.18571 3.59092 6.18571 7.29315C6.18571 10.9954 9.14862 13.9966 12.8036 13.9966Z" fill="#E0E0E0"/>
<path d="M12.8036 15.2483C6.81785 15.2483 1.96428 20.1611 1.96428 26.2279H23.6429C23.6429 20.1647 18.7893 15.2483 12.8036 15.2483Z" fill="#E0E0E0"/>
<path d="M12.4464 13.5879C16.1014 13.5879 19.0643 10.5866 19.0643 6.88437C19.0643 3.18213 16.1014 0.180878 12.4464 0.180878C8.79149 0.180878 5.82858 3.18213 5.82858 6.88437C5.82858 10.5866 8.79149 13.5879 12.4464 13.5879Z" fill="white"/>
<path d="M12.4464 14.8396C6.46072 14.8396 1.60715 19.7523 1.60715 25.8191H23.2857C23.2857 19.7559 18.4321 14.8396 12.4464 14.8396Z" fill="white"/>
</g>
<defs>
<clipPath id="clip0_754_1111">
<rect width="25" height="26" fill="white"/>
</clipPath>
</defs>
</svg>
