<svg width="13" height="16" viewBox="0 0 13 16" fill="none" xmlns="http://www.w3.org/2000/svg">
<path d="M12.208 13.8349L9.80599 9.67422C10.8705 8.70919 11.5393 7.31665 11.5393 5.76751C11.5371 2.85969 9.17956 0.5 6.26963 0.5C3.35969 0.5 1 2.85969 1 5.76962C1 8.67956 3.35969 11.0392 6.26963 11.0392C6.83468 11.0392 7.37646 10.9504 7.88649 10.7853L10.2885 14.946C10.5954 15.475 11.2726 15.657 11.8017 15.3523C12.3308 15.0454 12.5128 14.3682 12.208 13.8391V13.8349ZM8.89597 8.09969L8.88328 8.07852C8.39017 8.63511 7.72142 9.03298 6.96589 9.18747L6.97859 9.20864C6.75003 9.2552 6.513 9.28059 6.26963 9.28059C4.87497 9.28059 3.66867 8.46581 3.1015 7.28702C2.87294 6.82143 2.74596 6.2987 2.74596 5.74423C2.74596 3.80357 4.31838 2.23115 6.25904 2.23115C7.6537 2.23115 8.86 3.04593 9.42717 4.22471C9.65573 4.6903 9.78271 5.21303 9.78271 5.76751C9.78271 6.66271 9.44833 7.47749 8.89597 8.09757V8.09969Z" fill="#2A2D38" stroke="#2A2D38" stroke-miterlimit="10"/>
</svg>
